solid screw
  facet normal 0 0 0
    outer loop
      vertex 3.000000 0.000000 0.000000
      vertex 2.428425 -0.594263 0.000000
      vertex 2.428425 0.594263 0.000000
    endloop
  endfacet
  facet normal 0 0 0
    outer loop
      vertex 3.000000 0.000000 0.000000
      vertex 2.428425 0.594263 0.000000
      vertex 3.000000 0.000000 0.500000
    endloop
  endfacet
  facet normal 0 0 0
    outer loop
      vertex 2.428425 0.594263 0.000000
      vertex 2.428425 -0.594263 0.000000
      vertex 2.428425 -0.594263 0.500000
    endloop
  endfacet
  facet normal 0 0 0
    outer loop
      vertex 2.428425 0.594263 0.000000
      vertex 2.428425 -0.594263 0.500000
      vertex 2.428425 0.594263 0.500000
    endloop
  endfacet
  facet normal 0 0 0
    outer loop
      vertex 2.428425 -0.594263 0.000000
      vertex 3.000000 0.000000 0.000000
      vertex 3.000000 0.000000 0.500000
    endloop
  endfacet
endsolid screw
